<svg xmlns="http://www.w3.org/2000/svg" xmlns:xlink="http://www.w3.org/1999/xlink" contentStyleType="text/css" data-diagram-type="ACTIVITY" height="443px" preserveAspectRatio="none" style="width:290px;height:443px;background:#FFFFFF;" version="1.1" viewBox="0 0 290 443" width="290px" zoomAndPan="magnify"><title>Deployment Pipeline</title><defs/><g><text fill="#000000" font-family="Verdana" font-size="22" font-weight="bold" lengthAdjust="spacing" textLength="257.6084" x="15" y="35.4209">Deployment Pipeline</text><ellipse cx="145.3042" cy="61.6094" fill="#FFFFFF" rx="10" ry="10" style="stroke:#000000;stroke-width:1;"/><rect fill="#FFFFFF" height="33.9688" rx="12.5" ry="12.5" style="stroke:#000000;stroke-width:1;" width="161" x="64.8042" y="91.6094"/><text fill="#000000" font-family="Verdana" font-size="12" lengthAdjust="spacing" textLength="141" x="74.8042" y="112.748">Developer pushes code</text><rect fill="#FFFFFF" height="33.9688" rx="12.5" ry="12.5" style="stroke:#000000;stroke-width:1;" width="168.7813" x="60.9136" y="145.5781"/><text fill="#000000" font-family="Verdana" font-size="12" lengthAdjust="spacing" textLength="148.7813" x="70.9136" y="166.7168">GitHub Actions triggered</text><rect fill="#FFFFFF" height="33.9688" rx="12.5" ry="12.5" style="stroke:#000000;stroke-width:1;" width="114.7988" x="87.9048" y="199.5469"/><text fill="#000000" font-family="Verdana" font-size="12" lengthAdjust="spacing" textLength="94.7988" x="97.9048" y="220.6855">Build with Hugo</text><rect fill="#FFFFFF" height="33.9688" rx="12.5" ry="12.5" style="stroke:#000000;stroke-width:1;" width="221.3047" x="34.6519" y="253.5156"/><text fill="#000000" font-family="Verdana" font-size="12" lengthAdjust="spacing" textLength="201.3047" x="44.6519" y="274.6543">Deploy infrastructure (Terraform)</text><rect fill="#FFFFFF" height="33.9688" rx="12.5" ry="12.5" style="stroke:#000000;stroke-width:1;" width="141.6113" x="74.4985" y="307.4844"/><text fill="#000000" font-family="Verdana" font-size="12" lengthAdjust="spacing" textLength="121.6113" x="84.4985" y="328.623">Deploy site to Azure</text><rect fill="#FFFFFF" height="33.9688" rx="12.5" ry="12.5" style="stroke:#000000;stroke-width:1;" width="81.4063" x="104.6011" y="361.4531"/><text fill="#000000" font-family="Verdana" font-size="12" lengthAdjust="spacing" textLength="61.4063" x="114.6011" y="382.5918">Site is live</text><ellipse cx="145.3042" cy="426.4219" fill="none" rx="11" ry="11" style="stroke:#000000;stroke-width:1;"/><ellipse cx="145.3042" cy="426.4219" fill="#FFFFFF" rx="6" ry="6" style="stroke:#000000;stroke-width:1;"/><line style="stroke:#000000;stroke-width:1;" x1="145.3042" x2="145.3042" y1="71.6094" y2="91.6094"/><polygon fill="#000000" points="141.3042,81.6094,145.3042,91.6094,149.3042,81.6094,145.3042,85.6094" style="stroke:#000000;stroke-width:1;"/><line style="stroke:#000000;stroke-width:1;" x1="145.3042" x2="145.3042" y1="125.5781" y2="145.5781"/><polygon fill="#000000" points="141.3042,135.5781,145.3042,145.5781,149.3042,135.5781,145.3042,139.5781" style="stroke:#000000;stroke-width:1;"/><line style="stroke:#000000;stroke-width:1;" x1="145.3042" x2="145.3042" y1="179.5469" y2="199.5469"/><polygon fill="#000000" points="141.3042,189.5469,145.3042,199.5469,149.3042,189.5469,145.3042,193.5469" style="stroke:#000000;stroke-width:1;"/><line style="stroke:#000000;stroke-width:1;" x1="145.3042" x2="145.3042" y1="233.5156" y2="253.5156"/><polygon fill="#000000" points="141.3042,243.5156,145.3042,253.5156,149.3042,243.5156,145.3042,247.5156" style="stroke:#000000;stroke-width:1;"/><line style="stroke:#000000;stroke-width:1;" x1="145.3042" x2="145.3042" y1="287.4844" y2="307.4844"/><polygon fill="#000000" points="141.3042,297.4844,145.3042,307.4844,149.3042,297.4844,145.3042,301.4844" style="stroke:#000000;stroke-width:1;"/><line style="stroke:#000000;stroke-width:1;" x1="145.3042" x2="145.3042" y1="341.4531" y2="361.4531"/><polygon fill="#000000" points="141.3042,351.4531,145.3042,361.4531,149.3042,351.4531,145.3042,355.4531" style="stroke:#000000;stroke-width:1;"/><line style="stroke:#000000;stroke-width:1;" x1="145.3042" x2="145.3042" y1="395.4219" y2="415.4219"/><polygon fill="#000000" points="141.3042,405.4219,145.3042,415.4219,149.3042,405.4219,145.3042,409.4219" style="stroke:#000000;stroke-width:1;"/><!--SRC=[HOt13e8m44Jl_Ohrfhy09mo974tq1oeCi4dfDjijHh_USlBuPbvcJhPY0wNWEJfZ2w0UASXdGpIwSqBW2EUoUJNNzDWH944fbRmYqoWJMjVSs8RoecuqbfZ9b9S5YgbMry9XeZVRIaDPf3r6ZWFYEAlFfcMqeg3p4wf-5jqkVoUpWKoe-rQbne-3ELFWlM8sIUu7]--></g></svg>