<svg xmlns="http://www.w3.org/2000/svg" xmlns:xlink="http://www.w3.org/1999/xlink" contentStyleType="text/css" data-diagram-type="SEQUENCE" height="313px" preserveAspectRatio="none" style="width:587px;height:313px;background:#FFFFFF;" version="1.1" viewBox="0 0 587 313" width="587px" zoomAndPan="magnify"><title>Content Publication Flow</title><defs/><g><text fill="#000000" font-family="Verdana" font-size="22" font-weight="bold" lengthAdjust="spacing" textLength="311.2012" x="144.8228" y="35.4209">Content Publication Flow</text><g><title>Developer</title><rect fill="#000000" fill-opacity="0.00000" height="194.7969" width="8" x="59.0015" y="82.9063"/><line style="stroke:#000000;stroke-width:1;" x1="63" x2="63" y1="82.9063" y2="277.7031"/></g><g><title>GitHub</title><rect fill="#000000" fill-opacity="0.00000" height="194.7969" width="8" x="189.3755" y="82.9063"/><line style="stroke:#000000;stroke-width:1;" x1="193.1182" x2="193.1182" y1="82.9063" y2="277.7031"/></g><g><title>GitHub Actions</title><rect fill="#000000" fill-opacity="0.00000" height="194.7969" width="8" x="312.7544" y="82.9063"/><line style="stroke:#000000;stroke-width:1;" x1="316.5791" x2="316.5791" y1="82.9063" y2="277.7031"/></g><g><title>Hugo</title><rect fill="#000000" fill-opacity="0.00000" height="194.7969" width="8" x="468.2524" y="82.9063"/><line style="stroke:#000000;stroke-width:1;" x1="471.8262" x2="471.8262" y1="82.9063" y2="277.7031"/></g><g><title>Azure</title><rect fill="#000000" fill-opacity="0.00000" height="194.7969" width="8" x="550.7627" y="82.9063"/><line style="stroke:#000000;stroke-width:1;" x1="554.6787" x2="554.6787" y1="82.9063" y2="277.7031"/></g><g class="participant participant-head" data-participant="Dev"><rect fill="#FFFFFF" height="30.2969" rx="2.5" ry="2.5" style="stroke:#000000;stroke-width:1;" width="86.0029" x="20" y="51.6094"/><text fill="#000000" font-family="Verdana" font-size="14" lengthAdjust="spacing" textLength="72.0029" x="27" y="71.6045">Developer</text></g><g class="participant participant-tail" data-participant="Dev"><rect fill="#FFFFFF" height="30.2969" rx="2.5" ry="2.5" style="stroke:#000000;stroke-width:1;" width="86.0029" x="20" y="276.7031"/><text fill="#000000" font-family="Verdana" font-size="14" lengthAdjust="spacing" textLength="72.0029" x="27" y="296.6982">Developer</text></g><g class="participant participant-head" data-participant="GH"><rect fill="#FFFFFF" height="30.2969" rx="2.5" ry="2.5" style="stroke:#000000;stroke-width:1;" width="62.5146" x="162.1182" y="51.6094"/><text fill="#000000" font-family="Verdana" font-size="14" lengthAdjust="spacing" textLength="48.5146" x="169.1182" y="71.6045">GitHub</text></g><g class="participant participant-tail" data-participant="GH"><rect fill="#FFFFFF" height="30.2969" rx="2.5" ry="2.5" style="stroke:#000000;stroke-width:1;" width="62.5146" x="162.1182" y="276.7031"/><text fill="#000000" font-family="Verdana" font-size="14" lengthAdjust="spacing" textLength="48.5146" x="169.1182" y="296.6982">GitHub</text></g><g class="participant participant-head" data-participant="GA"><rect fill="#FFFFFF" height="30.2969" rx="2.5" ry="2.5" style="stroke:#000000;stroke-width:1;" width="118.3506" x="257.5791" y="51.6094"/><text fill="#000000" font-family="Verdana" font-size="14" lengthAdjust="spacing" textLength="104.3506" x="264.5791" y="71.6045">GitHub Actions</text></g><g class="participant participant-tail" data-participant="GA"><rect fill="#FFFFFF" height="30.2969" rx="2.5" ry="2.5" style="stroke:#000000;stroke-width:1;" width="118.3506" x="257.5791" y="276.7031"/><text fill="#000000" font-family="Verdana" font-size="14" lengthAdjust="spacing" textLength="104.3506" x="264.5791" y="296.6982">GitHub Actions</text></g><g class="participant participant-head" data-participant="Hugo"><rect fill="#FFFFFF" height="30.2969" rx="2.5" ry="2.5" style="stroke:#000000;stroke-width:1;" width="50.8525" x="446.8262" y="51.6094"/><text fill="#000000" font-family="Verdana" font-size="14" lengthAdjust="spacing" textLength="36.8525" x="453.8262" y="71.6045">Hugo</text></g><g class="participant participant-tail" data-participant="Hugo"><rect fill="#FFFFFF" height="30.2969" rx="2.5" ry="2.5" style="stroke:#000000;stroke-width:1;" width="50.8525" x="446.8262" y="276.7031"/><text fill="#000000" font-family="Verdana" font-size="14" lengthAdjust="spacing" textLength="36.8525" x="453.8262" y="296.6982">Hugo</text></g><g class="participant participant-head" data-participant="Azure"><rect fill="#FFFFFF" height="30.2969" rx="2.5" ry="2.5" style="stroke:#000000;stroke-width:1;" width="54.168" x="527.6787" y="51.6094"/><text fill="#000000" font-family="Verdana" font-size="14" lengthAdjust="spacing" textLength="40.168" x="534.6787" y="71.6045">Azure</text></g><g class="participant participant-tail" data-participant="Azure"><rect fill="#FFFFFF" height="30.2969" rx="2.5" ry="2.5" style="stroke:#000000;stroke-width:1;" width="54.168" x="527.6787" y="276.7031"/><text fill="#000000" font-family="Verdana" font-size="14" lengthAdjust="spacing" textLength="40.168" x="534.6787" y="296.6982">Azure</text></g><g class="message" data-participant-1="Dev" data-participant-2="GH"><polygon fill="#000000" points="181.3755,110.0391,191.3755,114.0391,181.3755,118.0391,185.3755,114.0391" style="stroke:#000000;stroke-width:1;"/><line style="stroke:#000000;stroke-width:1;" x1="63.0015" x2="187.3755" y1="114.0391" y2="114.0391"/><text fill="#000000" font-family="Verdana" font-size="13" lengthAdjust="spacing" textLength="106.374" x="70.0015" y="108.9731">1. Push changes</text></g><g class="message" data-participant-1="GH" data-participant-2="GA"><polygon fill="#000000" points="304.7544,139.1719,314.7544,143.1719,304.7544,147.1719,308.7544,143.1719" style="stroke:#000000;stroke-width:1;"/><line style="stroke:#000000;stroke-width:1;" x1="193.3755" x2="310.7544" y1="143.1719" y2="143.1719"/><text fill="#000000" font-family="Verdana" font-size="13" lengthAdjust="spacing" textLength="99.3789" x="200.3755" y="138.106">2. Trigger build</text></g><g class="message" data-participant-1="GA" data-participant-2="Hugo"><polygon fill="#000000" points="460.2524,168.3047,470.2524,172.3047,460.2524,176.3047,464.2524,172.3047" style="stroke:#000000;stroke-width:1;"/><line style="stroke:#000000;stroke-width:1;" x1="316.7544" x2="466.2524" y1="172.3047" y2="172.3047"/><text fill="#000000" font-family="Verdana" font-size="13" lengthAdjust="spacing" textLength="104.8633" x="323.7544" y="167.2388">3. Generate site</text></g><g class="message" data-participant-1="Hugo" data-participant-2="GA"><polygon fill="#000000" points="327.7544,197.4375,317.7544,201.4375,327.7544,205.4375,323.7544,201.4375" style="stroke:#000000;stroke-width:1;"/><line style="stroke:#000000;stroke-width:1;" x1="321.7544" x2="471.2524" y1="201.4375" y2="201.4375"/><text fill="#000000" font-family="Verdana" font-size="13" lengthAdjust="spacing" textLength="131.498" x="333.7544" y="196.3716">4. Return HTML files</text></g><g class="message" data-participant-1="GA" data-participant-2="Azure"><polygon fill="#000000" points="542.7627,226.5703,552.7627,230.5703,542.7627,234.5703,546.7627,230.5703" style="stroke:#000000;stroke-width:1;"/><line style="stroke:#000000;stroke-width:1;" x1="316.7544" x2="548.7627" y1="230.5703" y2="230.5703"/><text fill="#000000" font-family="Verdana" font-size="13" lengthAdjust="spacing" textLength="89.667" x="323.7544" y="225.5044">5. Deploy site</text></g><g class="message" data-participant-1="Azure" data-participant-2="Dev"><polygon fill="#000000" points="74.0015,255.7031,64.0015,259.7031,74.0015,263.7031,70.0015,259.7031" style="stroke:#000000;stroke-width:1;"/><line style="stroke:#000000;stroke-width:1;" x1="68.0015" x2="553.7627" y1="259.7031" y2="259.7031"/><text fill="#000000" font-family="Verdana" font-size="13" lengthAdjust="spacing" textLength="68.542" x="80.0015" y="254.6372">6. Site live</text></g><!--SRC=[RO-zJiGm48HxFyLmFPRuBL8WHQ1B2f0Gt0iuOKbMyjcMlJu4Ju_j4qKaklLyExFZ2rdfI0ZMi5F2OWcFtWavmMkUBCz6s3lihVzIAfWeF7CmXUwUw4JM1uexc8JoskA1PSnJOyFu7q8_r-XqNkctAsDUV0DrsAB-9qTgh4rAbTEuV2XNEbpfqZgjc5VZ5afg61lfErnh728l2qLCcUs76lgAQdo76us174KZXCH2gif_pbkDDv8S7SR3opC-sTRWvcu5EjpfylrW_VVPtDIAIx4EznhlHONb4wbV]--></g></svg>